<?xml version="1.0" standalone="no"?><!-- Generator: Adobe Fireworks CS6, Export SVG Extension by Aaron Beall (http://fireworks.abeall.com) . Version: 0.6.1  --><!DOCTYPE svg PUBLIC "-//W3C//DTD SVG 1.1//EN" "http://www.w3.org/Graphics/SVG/1.1/DTD/svg11.dtd"><svg id="Untitled-Page%201" viewBox="0 0 30 30" style="background-color:#ffffff00" version="1.1"	xmlns="http://www.w3.org/2000/svg" xmlns:xlink="http://www.w3.org/1999/xlink" xml:space="preserve"	x="0px" y="0px" width="30px" height="30px">	<g id="Layer%201">		<g opacity="0.702">			<path id="Ellipse" d="M 11 18.5 C 11 17.6716 11.6716 17 12.5 17 C 13.3284 17 14 17.6716 14 18.5 C 14 19.3284 13.3284 20 12.5 20 C 11.6716 20 11 19.3284 11 18.5 Z" fill="#ffffff"/>			<path id="Ellipse2" d="M 16 18.5 C 16 17.6716 16.6716 17 17.5 17 C 18.3284 17 19 17.6716 19 18.5 C 19 19.3284 18.3284 20 17.5 20 C 16.6716 20 16 19.3284 16 18.5 Z" fill="#ffffff"/>			<path d="M 2 15 C 2 7.8201 7.8202 2 15 2 C 22.1798 2 28 7.8201 28 15 C 28 22.1799 22.1798 28 15 28 C 7.8202 28 2 22.1799 2 15 ZM 0 15 C 0 23.2844 6.7156 30 15 30 C 23.2844 30 30 23.2844 30 15 C 30 6.7156 23.2844 0 15 0 C 6.7156 0 0 6.7156 0 15 Z" fill="#ffffff"/>			<path d="M 7 8 C 9.5469 10.5469 15 15 15 15 L 23 8 C 19.3702 4.3701 11.136 3.864 7 8 Z" fill="#ffffff"/>		</g>	</g></svg>