<?xml version="1.0" standalone="no"?>
<!-- Generator: Adobe Fireworks 10, Export SVG Extension by Aaron Beall (http://fireworks.abeall.com) . Version: 0.6.1  -->
<!DOCTYPE svg PUBLIC "-//W3C//DTD SVG 1.1//EN" "http://www.w3.org/Graphics/SVG/1.1/DTD/svg11.dtd">
<svg id="Untitled-Page%201" viewBox="0 0 106 56" style="background-color:#ffffff00" version="1.1"
	xmlns="http://www.w3.org/2000/svg" xmlns:xlink="http://www.w3.org/1999/xlink" xml:space="preserve"
	x="0px" y="0px" width="106px" height="56px"
>
	<g id="Layer%201">
		<path id="Ellipse" d="M 64 49 C 64 46.2388 66.2385 44 69 44 C 71.7615 44 74 46.2388 74 49 C 74 51.7612 71.7615 54 69 54 C 66.2385 54 64 51.7612 64 49 Z" fill="#ffec00"/>
		<path d="M 72.4179 48.5176 C 72.4179 50.6494 70.6571 52.3745 68.4817 52.3745 C 66.3063 52.3745 64.5435 50.6494 64.5435 48.5176 C 64.5435 46.3892 66.3063 44.6665 68.4817 44.6665 C 70.6571 44.6665 72.4179 46.3892 72.4179 48.5176 ZM 86.2681 12.0562 C 85.11 11.2778 83.6619 10.8877 81.9227 10.8877 C 79.4477 10.8877 77.4742 11.7896 75.9982 13.5933 L 75.9982 0 L 69.0793 0 L 69.0793 38.6479 C 69.0247 39.7632 68.5726 40.7607 67.3079 41.106 C 63.6288 41.6533 60.8121 44.7642 60.8121 48.5176 C 60.8121 52.6665 64.2454 56.0264 68.4848 56.0264 C 70.3791 56.0264 72.1108 55.3486 73.4503 54.2363 L 73.5195 54.1768 C 73.7086 54.0151 73.8928 53.8428 74.0649 53.6641 C 74.3307 53.4478 74.6382 53.272 75.002 53.272 C 75.4646 53.272 75.8032 53.3521 76.1855 53.6826 C 77.6849 55.3359 79.5989 56.1641 81.9227 56.1641 L 82.1987 56.1484 C 83.8434 56.1187 85.2305 55.7344 86.3428 54.9893 C 87.5044 54.2114 88.3076 53.3408 88.7568 52.3779 C 89.1848 51.4663 89.4049 49.9229 89.425 47.7598 L 89.4313 47.4492 L 89.4313 19.6011 C 89.4313 17.2666 89.1931 15.6196 88.7179 14.6616 C 88.2422 13.7017 87.4268 12.8325 86.2681 12.0562 ZM 82.511 44.168 L 82.511 46.748 C 82.511 47.5811 82.2286 48.2588 81.6656 48.7793 C 80.9502 49.457 80.0331 49.7207 78.9086 49.5605 C 77.9239 49.4116 76.7813 48.7168 75.9982 47.4463 L 75.9982 19.5381 C 76.9183 18.3384 77.8869 17.6621 78.9086 17.5039 C 80.0331 17.3467 80.9502 17.6089 81.6656 18.2866 C 82.2286 18.8105 82.511 19.4849 82.511 20.3208 L 82.511 44.168 ZM 99.8381 13.5288 L 99.8381 11.1523 L 92.9985 11.1523 L 92.9985 55.7754 L 99.8381 55.7754 L 99.8381 19.4629 C 100.8372 18.2676 101.8593 17.5898 102.9102 17.4331 C 104.0634 17.2764 105.0367 17.5366 105.8239 18.2144 L 105.8239 10.7319 C 103.3571 10.7319 101.3616 11.667 99.8381 13.5288 Z" fill="#8ec541"/>
		<path d="M 20.157 55.75 L 13.3359 55.75 L 13.3359 20.4917 C 13.3359 19.6685 13.0532 18.9922 12.491 18.4775 C 11.7744 17.8066 10.8566 17.5459 9.734 17.7031 C 8.7111 17.8584 7.7382 18.5278 6.8227 19.7168 L 6.8227 55.75 L 0 55.75 L 0 11.4429 L 6.8227 11.4429 L 6.8227 13.8286 C 8.3386 12.0342 10.3002 11.1367 12.7067 11.1367 C 14.4313 11.1367 15.8692 11.5259 17.0221 12.2959 C 18.1691 13.0693 18.9789 13.9351 19.4515 14.8887 C 19.9208 15.8442 20.157 17.4785 20.157 19.7983 L 20.157 55.75 L 20.157 55.75 Z" fill="#1a181b"/>
		<path d="M 31.9227 55.75 L 25.1016 55.75 L 25.1016 11.4429 L 31.9227 11.4429 L 31.9227 55.75 ZM 31.9227 6.8892 L 25.1016 6.8892 L 25.1016 0.3623 L 31.9227 0.3623 L 31.9227 6.8892 Z" fill="#1a181b"/>
		<path d="M 56.2746 46.0957 C 56.2746 48.8452 55.3005 51.1934 53.3519 53.1367 C 51.4001 55.082 49.0271 56.0547 46.2359 56.0547 C 43.4438 56.0547 41.0322 55.0884 39.0052 53.1587 C 36.9763 51.2266 35.9628 48.8926 35.9628 46.1567 L 35.9628 21.0347 C 35.9628 18.3022 36.9519 15.9712 38.9368 14.0386 C 40.92 12.1045 43.3124 11.1387 46.1177 11.1387 C 48.9224 11.1387 51.3167 12.1079 53.3019 14.042 C 55.28 15.979 56.2746 18.3145 56.2746 21.0503 L 56.2746 36.769 L 49.4511 36.769 L 49.4511 20.7837 C 49.4511 19.9038 49.1251 19.1367 48.4711 18.4858 C 47.8167 17.8345 47.047 17.5117 46.1571 17.5117 C 45.2141 17.5117 44.4168 17.8345 43.764 18.4858 C 43.1084 19.1367 42.7836 19.9004 42.7836 20.7837 L 42.7836 46.4092 C 42.7836 47.2939 43.1084 48.0581 43.764 48.7104 C 44.4168 49.355 45.2141 49.6797 46.1571 49.6797 C 47.047 49.6797 47.8167 49.3472 48.4711 48.6836 C 49.1251 48.0171 49.4511 47.2295 49.4511 46.3232 L 49.4511 43.7632 L 56.2746 43.7632 L 56.2746 46.0957 L 56.2746 46.0957 Z" fill="#1a181b"/>
	</g>
</svg>