<?xml version="1.0" standalone="no"?><!-- Generator: Adobe Fireworks CS6, Export SVG Extension by Aaron Beall (http://fireworks.abeall.com) . Version: 0.6.1  --><!DOCTYPE svg PUBLIC "-//W3C//DTD SVG 1.1//EN" "http://www.w3.org/Graphics/SVG/1.1/DTD/svg11.dtd"><svg id="Untitled-Page%201" viewBox="0 0 178 57" style="background-color:#ffffff00" version="1.1"	xmlns="http://www.w3.org/2000/svg" xmlns:xlink="http://www.w3.org/1999/xlink" xml:space="preserve"	x="0px" y="0px" width="178px" height="57px">	<g id="Layer%201">		<g>			<path id="Ellipse" d="M 136.7498 48.6548 C 136.7498 45.936 138.9364 43.7314 141.6338 43.7314 C 144.3311 43.7314 146.5176 45.936 146.5176 48.6548 C 146.5176 51.3735 144.3311 53.5776 141.6338 53.5776 C 138.9364 53.5776 136.7498 51.3735 136.7498 48.6548 Z" fill="#ffec00"/>			<g opacity="0.902">				<path d="M 145.3284 48.5391 C 145.3284 50.6724 143.6047 52.3999 141.4775 52.3999 C 139.3507 52.3999 137.6254 50.6724 137.6254 48.5391 C 137.6254 46.4126 139.3507 44.6899 141.4775 44.6899 C 143.6047 44.6899 145.3284 46.4126 145.3284 48.5391 ZM 155.1989 44.1899 L 155.1989 46.77 C 155.1989 47.6035 154.923 48.2827 154.3726 48.8037 C 153.6726 49.4814 152.7759 49.7441 151.6754 49.584 C 150.7124 49.4351 149.5947 48.7412 148.8289 47.4688 L 148.8289 19.5493 C 149.7275 18.3477 150.675 17.6714 151.6754 17.5127 C 152.7759 17.3569 153.6726 17.6152 154.3726 18.2964 C 154.923 18.8184 155.1989 19.4951 155.1989 20.3315 L 155.1989 44.1899 ZM 158.8738 12.0605 C 157.741 11.2817 156.3245 10.8926 154.624 10.8926 C 152.2029 10.8926 150.272 11.7949 148.8289 13.6006 L 148.8289 0 L 142.0618 0 L 142.0618 38.6675 C 142.0081 39.7832 141.5665 40.7798 140.3301 41.1245 C 136.73 41.6738 133.9751 44.7861 133.9751 48.5391 C 133.9751 52.6914 137.334 56.0552 141.4802 56.0552 C 143.3328 56.0552 145.0271 55.3755 146.3372 54.2637 L 146.4039 54.2026 C 146.59 54.0425 146.77 53.8677 146.9381 53.6899 C 147.1978 53.4736 147.499 53.2954 147.8539 53.2954 C 148.3069 53.2954 148.6381 53.3789 149.0112 53.709 C 150.4778 55.3613 152.3503 56.1914 154.624 56.1914 L 154.8936 56.1753 C 156.5021 56.1479 157.8578 55.7637 158.9473 55.0166 C 160.0823 54.2378 160.8673 53.3662 161.3076 52.4028 C 161.7266 51.4912 161.9417 49.9463 161.9612 47.7827 L 161.9675 47.4722 L 161.9675 19.6104 C 161.9675 17.2754 161.735 15.6265 161.2703 14.668 C 160.8042 13.708 160.0073 12.8379 158.8738 12.0605 ZM 172.1467 13.5352 L 172.1467 11.1553 L 165.4563 11.1553 L 165.4563 55.8037 L 172.1467 55.8037 L 172.1467 19.4727 C 173.1237 18.2769 174.124 17.5977 175.1514 17.4419 C 176.2791 17.2852 177.2313 17.5444 178 18.2227 L 178 10.7388 C 175.5883 10.7388 173.6372 11.6714 172.1467 13.5352 Z" fill="#95c125"/>				<path d="M 20.0437 46.3486 C 20.0437 49.1084 19.0802 51.4624 17.1573 53.4141 C 15.2333 55.3643 12.8934 56.3418 10.1383 56.3418 C 7.3827 56.3418 5.0039 55.3677 3.0032 53.4175 C 1.0012 51.4702 0 49.1196 0 46.3662 L 0 21.0381 C 0 18.2852 0.9785 15.9341 2.9355 13.9854 C 4.8931 12.0381 7.2559 11.0625 10.021 11.0625 C 12.7881 11.0625 15.1494 12.0366 17.1068 13.9819 C 19.0635 15.9258 20.0437 18.2754 20.0437 21.0254 L 20.0437 36.8247 L 13.3362 36.8247 L 13.3362 20.8218 C 13.3362 19.937 13.0111 19.1694 12.3616 18.5171 C 11.7106 17.8682 10.9443 17.543 10.0608 17.543 C 9.1248 17.543 8.3314 17.8569 7.682 18.4819 C 7.0305 19.1089 6.707 19.8892 6.707 20.8296 L 6.707 46.5747 C 6.707 47.5137 7.0305 48.2974 7.682 48.9224 C 8.3314 49.5488 9.1248 49.8613 10.0608 49.8613 C 10.9443 49.8613 11.7106 49.5327 12.3616 48.8726 C 13.0111 48.2124 13.3362 47.4365 13.3362 46.5391 L 13.3362 44.0073 L 20.0437 44.0073 L 20.0437 46.3486 Z" fill="#0075c8"/>				<path d="M 43.7502 46.3486 C 43.7502 49.1084 42.7883 51.4624 40.8651 53.4141 C 38.9414 55.3643 36.6016 56.3418 33.8464 56.3418 C 31.0388 56.3418 28.6461 55.3789 26.6708 53.4575 C 24.6946 51.5361 23.7081 49.1709 23.7081 46.3662 L 23.7081 21.0381 C 23.7081 18.2852 24.6859 15.9341 26.6429 13.9854 C 28.5992 12.0381 30.9633 11.0625 33.7296 11.0625 C 36.4951 11.0625 38.8567 12.0366 40.8146 13.9819 C 42.7712 15.9292 43.7502 18.2769 43.7502 21.0283 L 43.7502 39.5571 L 30.4148 39.5571 L 30.4148 46.5586 C 30.4148 47.4497 30.7391 48.2251 31.3894 48.8789 C 32.0396 49.5347 32.8055 49.8613 33.6902 49.8613 C 34.6262 49.8613 35.4187 49.5459 36.0686 48.9141 C 36.7185 48.2798 37.0439 47.4878 37.0439 46.5391 L 37.0439 44.0073 L 43.7502 44.0073 L 43.7502 46.3486 ZM 37.0439 33.312 L 37.0439 20.8218 C 37.0439 19.8843 36.7185 19.104 36.0686 18.479 C 35.4187 17.854 34.6262 17.543 33.6902 17.543 C 32.8055 17.543 32.0396 17.8682 31.3894 18.5171 C 30.7391 19.1694 30.4148 19.937 30.4148 20.8218 L 30.4148 33.312 L 37.0439 33.312 Z" fill="#0075c8"/>				<path d="M 81.4976 46.3662 C 81.4976 49.1196 80.5347 51.4702 78.6113 53.4175 C 76.6873 55.3677 74.3483 56.3418 71.5923 56.3418 C 70.2922 56.3418 68.9917 56.0024 67.6929 55.3276 C 66.1841 54.6001 65.2227 53.6865 64.8077 52.5938 C 64.3909 53.6865 63.4946 54.584 62.1166 55.2876 C 60.739 55.9912 59.4265 56.3418 58.1786 56.3418 C 55.4219 56.3418 53.0439 55.3677 51.0422 53.4175 C 49.0408 51.4702 48.0399 49.1196 48.0399 46.3662 L 48.0399 11.0625 L 54.7466 11.0625 L 54.7466 46.5825 C 54.7466 47.4688 55.0718 48.2363 55.7224 48.8853 C 56.3718 49.5376 57.1377 49.8613 58.0225 49.8613 C 58.9587 49.8613 59.7505 49.5488 60.4011 48.9253 C 61.051 48.2988 61.3761 47.52 61.3761 46.5825 L 61.3761 11.0625 L 68.0828 11.0625 L 68.0828 46.5825 C 68.0828 47.52 68.417 48.2988 69.0847 48.9253 C 69.7524 49.5488 70.5498 49.8613 71.4758 49.8613 C 72.3992 49.8613 73.1837 49.5488 73.8264 48.9253 C 74.4688 48.2988 74.7905 47.52 74.7905 46.5825 L 74.7905 11.0625 L 81.4976 11.0625 L 81.4976 46.3662 Z" fill="#0075c8"/>				<path d="M 105.5953 46.3486 C 105.5953 49.1084 104.6323 51.4624 102.709 53.4141 C 100.7854 55.3643 98.4459 56.3418 95.6899 56.3418 C 92.8828 56.3418 90.49 55.3789 88.5151 53.4575 C 86.5386 51.5361 85.5518 49.1709 85.5518 46.3662 L 85.5518 21.0381 C 85.5518 18.2852 86.5303 15.9341 88.4877 13.9854 C 90.4443 12.0381 92.8071 11.0625 95.5731 11.0625 C 98.3402 11.0625 100.7007 12.0366 102.657 13.9819 C 104.6152 15.9292 105.5953 18.2769 105.5953 21.0283 L 105.5953 39.5571 L 92.2579 39.5571 L 92.2579 46.5586 C 92.2579 47.4497 92.583 48.2251 93.2333 48.8789 C 93.8831 49.5347 94.649 49.8613 95.5345 49.8613 C 96.4697 49.8613 97.262 49.5459 97.9128 48.9141 C 98.5624 48.2798 98.8871 47.4878 98.8871 46.5391 L 98.8871 44.0073 L 105.5953 44.0073 L 105.5953 46.3486 ZM 98.8871 33.312 L 98.8871 20.8218 C 98.8871 19.8843 98.5624 19.104 97.9128 18.479 C 97.262 17.854 96.4697 17.543 95.5345 17.543 C 94.649 17.543 93.8831 17.8682 93.2333 18.5171 C 92.583 19.1694 92.2579 19.937 92.2579 20.8218 L 92.2579 33.312 L 98.8871 33.312 Z" fill="#0075c8"/>				<path d="M 128.9358 14.8027 C 128.4712 13.8413 127.6738 12.9707 126.5408 12.1938 C 125.4072 11.4165 123.99 11.0269 122.29 11.0269 C 119.8687 11.0269 117.9382 11.9277 116.4951 13.7354 L 116.4951 0.1328 L 116.4414 0.1328 L 109.7344 0.1328 L 109.7277 0.1328 L 109.7277 38.8008 C 109.7261 38.8281 109.7332 38.8633 109.7344 38.8936 L 109.7344 55.9512 L 116.4414 55.9512 L 116.4414 53.6016 C 117.0575 54.334 117.7236 54.9077 118.447 55.3389 C 119.3373 55.8643 120.3237 56.1738 121.4132 56.2793 C 121.4478 56.2827 121.4824 56.2861 121.5181 56.2891 C 121.7705 56.3101 122.0265 56.3242 122.29 56.3242 C 122.5718 56.3242 122.8135 56.3115 123.0229 56.2876 C 124.4287 56.1992 125.631 55.8242 126.613 55.1514 C 127.7487 54.3726 128.5348 53.5005 128.9749 52.5361 C 129.3937 51.626 129.6075 50.0811 129.6282 47.916 C 129.631 47.8164 129.6331 47.7153 129.6331 47.6035 L 129.6331 19.7432 C 129.6331 17.4082 129.4009 15.7593 128.9358 14.8027 ZM 122.9438 46.8184 C 122.9438 47.8052 122.5873 48.5615 121.877 49.0811 C 121.1648 49.6035 120.3278 49.7827 119.3651 49.6274 C 118.3477 49.4722 117.385 48.7959 116.4701 47.5972 L 116.4701 19.6489 C 117.385 18.4531 118.3477 17.7769 119.3651 17.6201 C 120.3278 17.4644 121.1648 17.647 121.877 18.1665 C 122.5873 18.687 122.9438 19.4434 122.9438 20.4307 L 122.9438 46.8184 Z" fill="#0075c8"/>			</g>		</g>	</g></svg>