<?xml version="1.0" standalone="no"?><!-- Generator: Adobe Fireworks CS6, Export SVG Extension by Aaron Beall (http://fireworks.abeall.com) . Version: 0.6.1  --><!DOCTYPE svg PUBLIC "-//W3C//DTD SVG 1.1//EN" "http://www.w3.org/Graphics/SVG/1.1/DTD/svg11.dtd"><svg id="Untitled-Page%201" viewBox="0 0 210 32" style="background-color:#ffffff00" version="1.1"	xmlns="http://www.w3.org/2000/svg" xmlns:xlink="http://www.w3.org/1999/xlink" xml:space="preserve"	x="0px" y="0px" width="210px" height="32px">	<g id="Layer%201">		<g>			<g>				<path d="M 6.4889 24.3123 C 6.5927 25.1083 6.7974 25.7151 7.1023 26.1311 C 7.4065 26.5478 7.8489 26.7562 8.4291 26.7562 C 9.0382 26.7562 9.689 26.6114 10.3799 26.3211 C 11.0715 26.0308 11.5803 25.7518 11.9072 25.4841 L 13.2454 28.6082 C 12.4274 29.5759 11.4089 30.3677 10.1907 30.985 C 8.9712 31.6023 7.7522 31.911 6.5334 31.911 C 4.7499 31.911 3.3785 31.4794 2.4194 30.617 C 1.4609 29.7538 0.8215 28.664 0.5018 27.3474 C 0.1821 26.0308 0.0226 24.5171 0.0226 22.8064 L 0 0.6248 L 6.333 0 L 6.333 21.1324 C 6.333 22.4568 6.3853 23.517 6.4889 24.3123 Z" fill="#ffffff"/>				<path d="M 34.0044 24.3349 C 34.1082 25.1309 34.3127 25.7377 34.6177 26.1537 C 34.9219 26.5704 35.3644 26.7788 35.9446 26.7788 C 36.5537 26.7788 37.2114 26.6298 37.918 26.3324 C 38.6238 26.035 39.1333 25.7518 39.4452 25.4841 L 40.7827 28.6308 C 39.9506 29.6126 38.9243 30.4157 37.7062 31.0408 C 36.4866 31.6659 35.2677 31.9781 34.0488 31.9781 C 31.1057 31.9781 29.1655 30.6763 28.229 28.0728 C 27.5006 29.2036 26.6128 30.1226 25.5647 30.8289 C 24.5166 31.5352 23.3013 31.9181 21.9187 31.9781 C 21.7407 31.9929 21.4733 32 21.1162 32 C 17.9797 32 15.8503 30.7653 14.7281 28.296 C 13.6052 25.8267 13.0442 23.007 13.0442 19.8384 C 13.0442 16.1937 13.7317 13.3076 15.1072 11.1802 C 16.4821 9.0527 18.7673 7.989 21.9639 7.989 C 22.959 7.989 23.9774 8.216 25.0184 8.6695 C 26.0587 9.1233 26.8987 9.6404 27.5381 10.2206 L 27.5381 8.2789 L 33.8484 8.8814 L 33.8484 21.155 C 33.8484 22.4794 33.8999 23.5396 34.0044 24.3349 ZM 23.5469 13.2109 C 22.4762 13.2109 21.6293 13.5976 21.0046 14.371 C 20.3801 15.1448 19.9453 16.0602 19.7004 17.1162 C 19.4548 18.1721 19.3326 19.1992 19.3326 20.1958 C 19.3623 21.9214 19.6777 23.394 20.2798 24.6139 C 20.8818 25.8337 21.7853 26.5104 22.9893 26.6446 L 23.3013 26.6672 C 24.1185 26.6672 24.9139 26.4066 25.6875 25.886 C 26.4603 25.3654 27.0771 24.7255 27.5381 23.9669 L 27.5381 15.0629 C 26.3784 13.8282 25.0481 13.2109 23.5469 13.2109 Z" fill="#ffffff"/>				<path d="M 47.7402 0.2232 L 47.7402 11.0908 C 48.2604 10.3915 49.0332 9.6997 50.0587 9.0153 C 51.085 8.3312 52.3186 7.989 53.7605 7.989 C 56.6147 7.989 58.6656 8.8853 59.9149 10.678 C 61.1635 12.471 61.9137 14.7136 62.167 17.4058 C 62.2263 18.0012 62.256 18.6631 62.256 19.392 L 62.256 20.1506 C 62.256 28.0361 59.2825 31.9781 53.337 31.9781 C 52.2516 31.9781 51.2966 31.822 50.4716 31.5091 C 49.6465 31.1969 48.9888 30.855 48.4983 30.4828 C 48.0077 30.1113 47.7621 29.9029 47.7621 29.8577 L 47.7621 31.4201 L 41.4518 31.4201 L 41.4518 0.8035 L 47.7402 0.2232 ZM 48.3197 26.0089 C 48.7064 26.1946 49.197 26.3698 49.7913 26.533 C 50.3855 26.6969 51.0405 26.7788 51.754 26.7788 C 52.7795 26.7788 53.6045 26.403 54.2285 25.6515 C 54.853 24.9007 55.2949 23.9888 55.5553 22.918 C 55.8151 21.8465 55.9456 20.7834 55.9456 19.7268 C 55.9456 18.4773 55.7783 17.3613 55.4438 16.3795 C 55.1093 15.3977 54.6526 14.6278 54.0725 14.0698 C 53.493 13.5121 52.8466 13.2331 52.1331 13.2331 C 51.2557 13.2331 50.3827 13.4863 49.5125 13.9917 C 48.6429 14.4978 48.0522 15.1003 47.7402 15.7992 L 47.7402 25.6847 C 47.7402 25.7151 47.9329 25.8224 48.3197 26.0089 Z" fill="#ffffff"/>				<path d="M 85.8359 14.282 C 86.0068 15.9486 86.0923 17.5696 86.0923 19.1469 C 86.0923 20.2177 86.0033 21.244 85.8247 22.2265 L 87.1628 26.7117 C 89.1694 26.4885 90.6078 25.5999 91.4773 24.0446 C 92.3468 22.4907 92.752 20.2403 92.6926 17.2942 C 92.6926 16.5956 92.6178 15.6248 92.4696 14.3823 C 92.3207 13.1402 92.1648 11.991 92.001 10.9344 C 91.8372 9.8784 91.7264 9.194 91.6671 8.8814 L 97.955 8.3012 C 98.3113 10.6222 98.5753 12.6158 98.7468 14.282 C 98.9169 15.9486 99.0029 17.5696 99.0029 19.1469 C 99.0029 21.7208 98.516 23.9782 97.542 25.9192 C 96.5688 27.8609 95.1714 29.3597 93.3505 30.4157 C 91.5295 31.4724 89.3776 32 86.8954 32 C 86.256 32 85.6801 31.9146 85.167 31.7436 C 84.6538 31.5727 84.2382 31.3904 83.9185 31.1969 C 83.5986 31.0041 83.4392 30.8925 83.4392 30.8621 L 82.6804 28.6527 C 81.6254 29.739 80.3621 30.5647 78.8904 31.1298 C 77.4182 31.6949 75.7681 31.9852 73.9402 32 L 68.6333 31.6659 L 64.8201 13.3221 L 63.1925 13.3221 L 63.1925 8.5466 L 70.4839 8.5466 L 74.2521 26.7117 C 76.2593 26.4885 77.697 25.5999 78.5665 24.0446 C 79.4368 22.4907 79.8411 20.2403 79.7819 17.2942 C 79.7819 16.5956 79.7078 15.6248 79.5588 14.3823 C 79.4106 13.1402 79.2539 11.991 79.0908 10.9344 C 78.9271 9.8784 78.8157 9.194 78.7563 8.8814 L 85.0442 8.3012 C 85.4012 10.6222 85.6653 12.6158 85.8359 14.282 Z" fill="#ffffff"/>				<path d="M 109.9948 25.8634 C 110.8572 26.533 112.0833 26.8678 113.6741 26.8678 C 114.329 26.8678 114.9458 26.8381 115.5245 26.7788 C 116.7441 26.6298 118.0371 26.3401 119.4049 25.9079 C 120.7727 25.477 121.8878 25.09 122.7489 24.7481 L 123.7087 28.6082 C 123.2472 29.0249 122.4637 29.4975 121.3557 30.0251 C 120.249 30.5534 118.9702 31.0111 117.5205 31.3975 C 116.0708 31.7846 114.6184 31.9781 113.1616 31.9781 C 110.4854 31.9781 108.3481 31.5317 106.7502 30.6389 C 105.1525 29.7461 104.0006 28.3963 103.2942 26.5888 C 102.5884 24.7813 102.2355 22.4419 102.2355 19.5707 C 102.2355 16.9226 102.5919 14.7542 103.3054 13.0657 C 104.019 11.3772 105.1821 10.1125 106.7955 9.272 C 108.4082 8.4318 110.5594 8.0112 113.2505 8.0112 C 116.2981 8.0112 118.7288 8.6844 120.5426 10.0306 C 122.3551 11.3772 123.3362 13.4863 123.4857 16.3569 C 123.5154 16.6994 123.5295 17.1981 123.5295 17.8522 C 123.5295 18.656 123.4999 19.3997 123.4406 20.0842 C 123.3813 20.7686 123.3362 21.1995 123.3064 21.3782 L 108.7236 22.2265 C 108.7089 23.9817 109.1323 25.1938 109.9948 25.8634 ZM 117.354 16.5137 C 117.354 14.1333 115.9565 12.9428 113.1616 12.9428 C 111.7791 12.9428 110.7161 13.3151 109.9729 14.0588 C 109.229 14.8029 108.8055 15.9331 108.7018 17.451 L 117.3313 17.1162 C 117.3455 16.982 117.354 16.7814 117.354 16.5137 Z" fill="#ffffff"/>				<path d="M 146.547 12.5144 L 146.7045 12.2239 C 146.4407 11.6761 146.1414 11.1606 145.8053 10.678 C 144.5568 8.8853 142.505 7.989 139.6509 7.989 C 138.209 7.989 136.9753 8.3312 135.9497 9.0153 C 134.9236 9.6997 134.1508 10.3915 133.6306 11.0908 L 133.6306 0.2232 L 127.3428 0.8035 L 127.3428 31.4201 L 133.6532 31.4201 L 133.6532 29.8577 C 133.6532 29.9029 133.8981 30.1113 134.3885 30.4828 C 134.8792 30.855 135.5369 31.1969 136.3619 31.5091 C 137.187 31.822 138.1418 31.9781 139.2274 31.9781 C 142.7385 31.9781 145.2125 30.6039 146.6503 27.854 L 146.547 27.6709 L 146.547 27.6433 C 145.4849 25.5992 144.9131 22.9003 144.9131 20.0651 C 144.9131 17.2574 145.4849 14.5589 146.547 12.5144 ZM 134.21 26.0089 C 133.8232 25.8224 133.6306 25.7151 133.6306 25.6847 L 133.6306 15.7992 C 133.9425 15.1003 134.5332 14.4978 135.4036 13.9917 C 136.2729 13.4863 137.146 13.2331 138.0233 13.2331 C 138.7368 13.2331 139.3834 13.5121 139.9629 14.0698 C 140.543 14.6278 141.0004 15.3977 141.3342 16.3795 C 141.6687 17.3613 141.8359 18.4773 141.8359 19.7268 C 141.8359 20.7834 141.7061 21.8465 141.4457 22.918 C 141.1859 23.9888 140.7434 24.9007 140.1195 25.6515 C 139.4949 26.403 138.6698 26.7788 137.6443 26.7788 C 136.9308 26.7788 136.2766 26.6969 135.6823 26.533 C 135.0873 26.3698 134.5968 26.1946 134.21 26.0089 Z" fill="#ffffff"/>			</g>			<g>				<path opacity="0.6" d="M 152.0839 31.4328 C 150.9941 31.4328 149.8776 31.0239 148.9241 30.2603 C 148.1887 29.6606 147.5352 28.7883 146.9084 27.6709 L 146.9084 27.6433 C 145.8462 25.5992 145.2745 22.9003 145.2745 20.0651 C 145.2745 17.2574 145.8462 14.5589 146.9084 12.5144 C 147.4807 11.4239 148.1619 10.5515 148.9241 9.8975 L 148.9241 9.8703 L 148.9517 9.8703 C 149.8776 9.1343 150.9941 8.7253 152.0839 8.7253 L 152.7649 8.7253 L 152.7649 12.3237 L 152.0839 12.3237 C 151.5665 12.3237 150.7767 12.8687 150.1226 14.1499 C 149.3059 15.6767 148.8698 17.8027 148.8698 20.0651 C 148.8698 22.355 149.3059 24.4818 150.1226 26.0082 C 150.7767 27.2895 151.5665 27.8616 152.0839 27.8616 L 152.7649 27.8616 L 152.7649 31.4328 L 152.0839 31.4328 Z" fill="#ffffff"/>			</g>			<g>				<path opacity="0.6" d="M 156.4435 28.0354 L 156.4146 28.0354 C 155.1399 26.7018 154.4447 24.9911 154.4447 23.1942 L 154.4447 22.4688 L 158.3264 22.4688 L 158.3264 23.1942 C 158.3264 24.8463 159.6307 26.2377 161.2527 26.2377 C 162.8752 26.2377 164.2078 24.8463 164.2078 23.1942 C 164.2078 21.5993 162.8752 20.2947 161.2236 20.2947 L 160.4706 20.2947 L 160.4706 16.4099 L 161.2236 16.4099 C 162.3826 16.4099 163.3678 15.4528 163.3678 14.3219 C 163.3678 13.1625 162.4404 12.1475 161.2527 12.1475 C 160.1516 12.1475 159.196 13.1625 159.196 14.3219 L 159.196 15.047 L 155.2853 15.047 L 155.2853 14.3219 C 155.2853 12.7274 155.9226 11.2487 157.0518 10.1182 C 158.1818 9.0163 159.6597 8.4654 161.2527 8.4654 C 162.8462 8.4654 164.3524 9.0163 165.4824 10.1182 C 166.6412 11.2487 167.2496 12.7274 167.2496 14.3219 C 167.2496 15.7138 166.728 17.0766 165.8014 18.1778 C 165.8882 18.2357 165.975 18.3233 166.0618 18.4102 C 166.6991 19.048 167.2207 19.8017 167.5679 20.5843 C 167.9159 21.4255 168.0895 22.295 168.0895 23.1942 C 168.0895 25.02 167.3943 26.7597 166.0907 28.0354 C 165.4534 28.6732 164.7003 29.1662 163.8887 29.5144 C 163.0488 29.833 162.1801 29.9488 161.2527 29.9488 C 159.4564 29.9488 157.718 29.311 156.4435 28.0354 Z" fill="#ffffff"/>				<path opacity="0.6" d="M 171.8287 27.9195 C 170.4962 26.6149 169.7721 24.8752 169.7721 22.9907 C 169.7721 21.8599 170.0911 20.6711 170.6409 19.5989 L 170.6698 19.5989 L 177.0437 9.0163 L 181.5918 9.0163 L 177.3621 16.0327 C 180.9255 16.3223 183.7649 19.3376 183.7649 22.9907 C 183.7649 24.8752 183.0406 26.6149 181.7075 27.9195 C 180.4039 29.2241 178.6655 29.9199 176.7826 29.9199 C 174.8995 29.9199 173.1619 29.2241 171.8287 27.9195 ZM 173.6538 22.9907 C 173.6538 24.7015 175.1028 26.1798 176.7826 26.1798 C 178.463 26.1798 179.8823 24.7015 179.8823 22.9907 C 179.8823 21.251 178.4919 19.8306 176.7826 19.8306 C 175.0739 19.8306 173.6538 21.251 173.6538 22.9907 Z" fill="#ffffff"/>				<path opacity="0.6" d="M 187.6184 27.9195 C 186.2859 26.586 185.5618 24.8463 185.5618 22.9618 L 185.5618 15.4528 C 185.5618 13.5972 186.2859 11.8286 187.6184 10.495 C 188.9515 9.1904 190.7471 8.4654 192.6301 8.4654 C 194.5138 8.4654 196.2804 9.1904 197.6135 10.495 C 198.9751 11.8286 199.6992 13.5972 199.6992 15.4528 L 199.6992 22.9618 C 199.6992 26.8176 196.5415 29.9778 192.6301 29.9778 C 190.7471 29.9778 188.9515 29.2531 187.6184 27.9195 ZM 189.4146 15.4528 L 189.4146 22.9618 C 189.4146 24.7304 190.8635 26.1798 192.6301 26.1798 C 194.3973 26.1798 195.8463 24.7304 195.8463 22.9618 L 195.8463 15.4528 C 195.8463 13.6841 194.3973 12.2637 192.6301 12.2637 C 190.8635 12.2637 189.4146 13.6841 189.4146 15.4528 Z" fill="#ffffff"/>			</g>			<g>				<path opacity="0.6" d="M 202.5095 27.8616 L 203.2175 27.8616 C 203.708 27.8616 204.5253 27.2895 205.1788 26.035 C 205.9961 24.4267 206.4316 22.3282 206.4316 20.0651 C 206.4316 17.8303 205.9961 15.7311 205.1788 14.1499 C 204.5253 12.8687 203.708 12.3237 203.2175 12.3237 L 202.5095 12.3237 L 202.5095 8.7253 L 203.2175 8.7253 C 204.2797 8.7253 205.4237 9.1343 206.3229 9.8703 C 207.1127 10.5243 207.7937 11.4239 208.3386 12.5144 C 209.4283 14.5589 210 17.2306 210 20.0651 C 210 22.9279 209.4283 25.6268 208.3386 27.6709 C 207.7662 28.7883 207.0858 29.6606 206.3229 30.2603 C 205.4237 31.0239 204.3071 31.4328 203.2175 31.4328 L 202.5095 31.4328 L 202.5095 27.8616 Z" fill="#ffffff"/>			</g>		</g>	</g></svg>