<?xml version="1.0" standalone="no"?>
<!-- Generator: Adobe Fireworks 10, Export SVG Extension by Aaron Beall (http://fireworks.abeall.com) . Version: 0.6.1  -->
<!DOCTYPE svg PUBLIC "-//W3C//DTD SVG 1.1//EN" "http://www.w3.org/Graphics/SVG/1.1/DTD/svg11.dtd">
<svg id="Untitled-Page%201" viewBox="0 0 105 67" style="background-color:#ffffff00" version="1.1"
	xmlns="http://www.w3.org/2000/svg" xmlns:xlink="http://www.w3.org/1999/xlink" xml:space="preserve"
	x="0px" y="0px" width="105px" height="67px"
>
	<g id="Layer%201">
		<path id="Ellipse" d="M 63 49 C 63 46.2388 65.2385 44 68 44 C 70.7615 44 73 46.2388 73 49 C 73 51.7612 70.7615 54 68 54 C 65.2385 54 63 51.7612 63 49 Z" fill="#ffec00"/>
		<path d="M 71.8043 48.5566 C 71.8043 50.6729 70.0538 52.3887 67.8929 52.3887 C 65.731 52.3887 63.9796 50.6729 63.9796 48.5566 C 63.9796 46.4424 65.731 44.7295 67.8929 44.7295 C 70.0538 44.7295 71.8043 46.4424 71.8043 48.5566 ZM 85.5679 12.3228 C 84.4158 11.5479 82.9771 11.1621 81.2501 11.1621 C 78.7893 11.1621 76.8276 12.0591 75.3613 13.8506 L 75.3613 0.3418 L 68.4851 0.3418 L 68.4851 38.75 C 68.4304 39.8574 67.9832 40.8486 66.726 41.189 C 63.0697 41.7368 60.2714 44.8267 60.2714 48.5566 C 60.2714 52.6758 63.6819 56.0171 67.8942 56.0171 C 69.7777 56.0171 71.5004 55.3457 72.8304 54.2363 L 72.8986 54.1787 C 73.0883 54.0186 73.269 53.8491 73.4415 53.6689 C 73.7045 53.4521 74.0096 53.2813 74.3707 53.2813 C 74.8325 53.2813 75.1685 53.3599 75.5496 53.6875 C 77.0394 55.3296 78.9388 56.1519 81.2501 56.1519 L 81.5226 56.1377 C 83.1586 56.1094 84.5355 55.728 85.6415 54.9863 C 86.7955 54.2129 87.5944 53.3501 88.0397 52.3921 C 88.465 51.4854 88.6835 49.9497 88.7031 47.8037 L 88.7095 47.4932 L 88.7095 19.8188 C 88.7095 17.499 88.4733 15.8628 88.0011 14.9106 C 87.5294 13.957 86.7184 13.0942 85.5679 12.3228 ZM 81.8333 44.2319 L 81.8333 46.7969 C 81.8333 47.625 81.5521 48.2993 80.9941 48.8169 C 80.2823 49.4917 79.3704 49.7505 78.2542 49.5952 C 77.2749 49.4443 76.1385 48.7544 75.3613 47.4917 L 75.3613 19.7593 C 76.2753 18.5654 77.2388 17.894 78.2542 17.7373 C 79.3704 17.5806 80.2823 17.8408 80.9941 18.5156 C 81.5521 19.0332 81.8333 19.7075 81.8333 20.5342 L 81.8333 44.2319 ZM 99.0526 13.7861 L 99.0526 11.4238 L 92.2543 11.4238 L 92.2543 55.769 L 99.0526 55.769 L 99.0526 19.6826 C 100.0441 18.4951 101.0598 17.8223 102.104 17.665 C 103.2502 17.5117 104.2168 17.7686 105 18.4419 L 105 11.0083 C 102.5482 11.0083 100.5665 11.9351 99.0526 13.7861 Z" fill="#8ec541"/>
		<path d="M 20.0132 46.21 C 20.0132 48.9707 19.0339 51.3237 17.0802 53.272 C 15.1261 55.2231 12.7472 56.1943 9.9481 56.1943 C 7.1475 56.1943 4.7295 55.2295 2.697 53.2969 C 0.6598 51.3677 -0.3545 49.0366 -0.3545 46.3076 L -0.3545 21.2007 C -0.3545 18.4697 0.6401 16.1406 2.6285 14.2114 C 4.6168 12.2803 7.0179 11.311 9.8287 11.311 C 12.6405 11.311 15.0406 12.2803 17.0294 14.2114 C 19.0167 16.1406 20.0132 18.4697 20.0132 21.2007 L 20.0132 36.8804 L 13.172 36.8804 L 13.172 20.9639 C 13.172 20.084 12.8429 19.3184 12.1885 18.6738 C 11.5341 18.0259 10.7611 17.7046 9.8682 17.7046 C 8.9248 17.7046 8.1239 18.0293 7.4679 18.6768 C 6.812 19.3184 6.4856 20.0869 6.4856 20.9673 L 6.4856 46.5425 C 6.4856 47.4258 6.812 48.1895 7.4679 48.8359 C 8.1239 49.4824 8.9248 49.8066 9.8682 49.8066 C 10.7611 49.8066 11.5341 49.4727 12.1885 48.8062 C 12.8429 48.1362 13.172 47.3491 13.172 46.436 L 13.172 43.873 L 20.0132 43.873 L 20.0132 46.21 L 20.0132 46.21 Z" fill="#515e66"/>
		<path d="M 37.7244 13.9209 L 37.7412 13.9102 L 37.7412 13.915 L 37.7244 13.9209 ZM 37.7412 47.5874 C 36.7435 48.7793 35.7206 49.4521 34.6732 49.6045 C 33.5184 49.7646 32.5758 49.5039 31.8416 48.833 C 31.3167 48.312 31.0552 47.6406 31.0552 46.814 L 31.0552 23.146 L 31.0552 20.5859 C 31.0552 19.7607 31.3804 19.0488 32.0367 18.4526 C 32.6927 17.8599 33.5964 17.6401 34.7524 17.7939 C 35.7982 17.9492 36.7952 18.6221 37.7412 19.8125 L 37.7412 47.5874 L 37.7412 47.5874 ZM 37.7412 11.4648 L 37.7412 13.9067 C 36.2202 12.1016 34.2252 11.2012 31.7627 11.2012 C 30.0343 11.2012 28.59 11.5854 27.4368 12.3574 C 26.2831 13.1323 25.4843 13.9946 25.0385 14.9517 C 24.594 15.8989 24.373 17.5288 24.3707 19.8267 L 24.3691 19.8267 L 24.3691 47.5293 C 24.3691 49.8491 24.5905 51.4897 25.0374 52.4438 C 25.4834 53.4004 26.2823 54.2632 27.4355 55.0381 C 28.5889 55.8096 30.0331 56.1943 31.762 56.1943 C 34.2249 56.1943 36.2198 55.292 37.7412 53.4854 L 37.7412 58.0244 C 37.7412 58.9785 37.4109 59.7754 36.757 60.4136 C 36.101 61.0474 35.3016 61.3687 34.3579 61.3687 C 33.4144 61.3687 32.6282 61.0396 31.9982 60.3901 C 31.3678 59.7295 31.0548 58.9565 31.0548 58.064 L 24.3691 58.064 C 24.3691 60.707 25.3326 62.8545 27.2623 64.5156 C 29.1929 66.1704 31.5824 67 34.4351 67 C 37.2877 67 39.6942 66.1782 41.6503 64.5405 C 43.6024 62.8979 44.5813 60.7256 44.5813 58.0244 L 44.5813 11.4663 L 37.7412 11.4663 L 37.7412 11.4648 Z" fill="#515e66"/>
		<path d="M 56.0304 55.8931 L 49.1904 55.8931 L 49.1904 11.4648 L 56.0304 11.4648 L 56.0304 55.8931 ZM 56.0304 6.9019 L 49.1904 6.9019 L 49.1904 0.3574 L 56.0304 0.3574 L 56.0304 6.9019 Z" fill="#515e66"/>
	</g>
</svg>